<svg xmlns="http://www.w3.org/2000/svg" xmlns:xlink="http://www.w3.org/1999/xlink" width="500" zoomAndPan="magnify" viewBox="0 0 375 374.999991" height="500" preserveAspectRatio="xMidYMid meet" version="1.0"><defs><g/></defs><g fill="#ffe033" fill-opacity="1"><g transform="translate(33.662112, 198.749987)"><g><path d="M 1.734375 0 L 1.734375 -23.359375 L 6.9375 -23.359375 L 9.5625 -13.3125 L 12.21875 -23.359375 L 17.46875 -23.359375 L 17.46875 0 L 13.734375 0 L 13.734375 -9.828125 C 13.734375 -11.171875 13.769531 -12.5625 13.84375 -14 C 13.914062 -15.4375 14.003906 -16.832031 14.109375 -18.1875 C 14.210938 -19.539062 14.332031 -20.773438 14.46875 -21.890625 L 11.171875 -10.140625 L 7.875 -10.140625 L 4.703125 -21.59375 C 4.890625 -20.125 5.0625 -18.367188 5.21875 -16.328125 C 5.382812 -14.296875 5.46875 -12.128906 5.46875 -9.828125 L 5.46875 0 Z M 1.734375 0 "/></g></g></g><g fill="#ffe033" fill-opacity="1"><g transform="translate(52.889386, 198.749987)"><g><path d="M 1.125 0 L 7.015625 -23.359375 L 12.15625 -23.359375 L 18.078125 0 L 13.984375 0 L 12.703125 -5.65625 L 6.5 -5.65625 L 5.21875 0 Z M 7.234375 -8.921875 L 11.96875 -8.921875 L 10.5625 -15.203125 C 10.320312 -16.242188 10.117188 -17.1875 9.953125 -18.03125 C 9.785156 -18.875 9.664062 -19.488281 9.59375 -19.875 C 9.53125 -19.488281 9.410156 -18.875 9.234375 -18.03125 C 9.066406 -17.1875 8.867188 -16.253906 8.640625 -15.234375 Z M 7.234375 -8.921875 "/></g></g></g><g fill="#ffe033" fill-opacity="1"><g transform="translate(72.116661, 198.749987)"><g><path d="M 2.46875 0 L 2.46875 -23.359375 L 9.828125 -23.359375 C 11.378906 -23.359375 12.722656 -23.066406 13.859375 -22.484375 C 15.003906 -21.910156 15.894531 -21.109375 16.53125 -20.078125 C 17.175781 -19.046875 17.5 -17.828125 17.5 -16.421875 C 17.5 -14.859375 17.113281 -13.492188 16.34375 -12.328125 C 15.582031 -11.171875 14.550781 -10.347656 13.25 -9.859375 L 17.828125 0 L 13.4375 0 L 9.34375 -9.28125 L 6.4375 -9.28125 L 6.4375 0 Z M 6.4375 -12.796875 L 9.828125 -12.796875 C 10.953125 -12.796875 11.832031 -13.101562 12.46875 -13.71875 C 13.113281 -14.34375 13.4375 -15.195312 13.4375 -16.28125 C 13.4375 -17.375 13.109375 -18.238281 12.453125 -18.875 C 11.804688 -19.519531 10.929688 -19.84375 9.828125 -19.84375 L 6.4375 -19.84375 Z M 6.4375 -12.796875 "/></g></g></g><g fill="#ffe033" fill-opacity="1"><g transform="translate(91.343936, 198.749987)"><g><path d="M 7.578125 0 L 7.578125 -19.75 L 1.46875 -19.75 L 1.46875 -23.359375 L 17.734375 -23.359375 L 17.734375 -19.75 L 11.609375 -19.75 L 11.609375 0 Z M 7.578125 0 "/></g></g></g><g fill="#ffe033" fill-opacity="1"><g transform="translate(110.571211, 198.749987)"><g><path d="M 2.875 0 L 2.875 -3.609375 L 7.578125 -3.609375 L 7.578125 -19.75 L 2.875 -19.75 L 2.875 -23.359375 L 16.3125 -23.359375 L 16.3125 -19.75 L 11.609375 -19.75 L 11.609375 -3.609375 L 16.3125 -3.609375 L 16.3125 0 Z M 2.875 0 "/></g></g></g><g fill="#ffe033" fill-opacity="1"><g transform="translate(129.798485, 198.749987)"><g><path d="M 1.125 0 L 7.015625 -23.359375 L 12.15625 -23.359375 L 18.078125 0 L 13.984375 0 L 12.703125 -5.65625 L 6.5 -5.65625 L 5.21875 0 Z M 7.234375 -8.921875 L 11.96875 -8.921875 L 10.5625 -15.203125 C 10.320312 -16.242188 10.117188 -17.1875 9.953125 -18.03125 C 9.785156 -18.875 9.664062 -19.488281 9.59375 -19.875 C 9.53125 -19.488281 9.410156 -18.875 9.234375 -18.03125 C 9.066406 -17.1875 8.867188 -16.253906 8.640625 -15.234375 Z M 7.234375 -8.921875 "/></g></g></g><g fill="#ffe033" fill-opacity="1"><g transform="translate(149.02576, 198.749987)"><g><path d="M 3.875 0 L 3.875 -23.359375 L 7.875 -23.359375 L 7.875 -3.609375 L 17.796875 -3.609375 L 17.796875 0 Z M 3.875 0 "/></g></g></g><g fill="#006600" fill-opacity="1"><g transform="translate(168.263665, 198.749987)"><g><path d="M 3.875 0 L 3.875 -23.359375 L 7.875 -23.359375 L 7.875 -3.609375 L 17.796875 -3.609375 L 17.796875 0 Z M 3.875 0 "/></g></g></g><g fill="#006600" fill-opacity="1"><g transform="translate(187.49094, 198.749987)"><g><path d="M 9.59375 0.3125 C 7.351562 0.3125 5.578125 -0.320312 4.265625 -1.59375 C 2.953125 -2.875 2.296875 -4.644531 2.296875 -6.90625 L 2.296875 -16.453125 C 2.296875 -18.710938 2.953125 -20.484375 4.265625 -21.765625 C 5.578125 -23.046875 7.351562 -23.6875 9.59375 -23.6875 C 11.832031 -23.6875 13.609375 -23.046875 14.921875 -21.765625 C 16.234375 -20.484375 16.890625 -18.722656 16.890625 -16.484375 L 16.890625 -6.90625 C 16.890625 -4.644531 16.234375 -2.875 14.921875 -1.59375 C 13.609375 -0.320312 11.832031 0.3125 9.59375 0.3125 Z M 9.59375 -3.203125 C 10.6875 -3.203125 11.507812 -3.492188 12.0625 -4.078125 C 12.613281 -4.660156 12.890625 -5.5 12.890625 -6.59375 L 12.890625 -16.765625 C 12.890625 -17.859375 12.613281 -18.695312 12.0625 -19.28125 C 11.507812 -19.863281 10.6875 -20.15625 9.59375 -20.15625 C 8.507812 -20.15625 7.6875 -19.863281 7.125 -19.28125 C 6.570312 -18.695312 6.296875 -17.859375 6.296875 -16.765625 L 6.296875 -6.59375 C 6.296875 -5.5 6.570312 -4.660156 7.125 -4.078125 C 7.6875 -3.492188 8.507812 -3.203125 9.59375 -3.203125 Z M 9.59375 -3.203125 "/></g></g></g><g fill="#006600" fill-opacity="1"><g transform="translate(206.718215, 198.749987)"><g><path d="M 9.734375 0.3125 C 8.210938 0.3125 6.894531 0.03125 5.78125 -0.53125 C 4.675781 -1.09375 3.816406 -1.890625 3.203125 -2.921875 C 2.597656 -3.960938 2.296875 -5.1875 2.296875 -6.59375 L 2.296875 -16.765625 C 2.296875 -18.171875 2.597656 -19.390625 3.203125 -20.421875 C 3.816406 -21.460938 4.675781 -22.265625 5.78125 -22.828125 C 6.894531 -23.398438 8.210938 -23.6875 9.734375 -23.6875 C 11.222656 -23.6875 12.519531 -23.398438 13.625 -22.828125 C 14.738281 -22.265625 15.601562 -21.460938 16.21875 -20.421875 C 16.84375 -19.390625 17.15625 -18.171875 17.15625 -16.765625 L 13.125 -16.765625 C 13.125 -17.859375 12.828125 -18.695312 12.234375 -19.28125 C 11.648438 -19.863281 10.816406 -20.15625 9.734375 -20.15625 C 8.640625 -20.15625 7.789062 -19.867188 7.1875 -19.296875 C 6.59375 -18.722656 6.296875 -17.890625 6.296875 -16.796875 L 6.296875 -6.59375 C 6.296875 -5.5 6.59375 -4.65625 7.1875 -4.0625 C 7.789062 -3.46875 8.640625 -3.171875 9.734375 -3.171875 C 10.816406 -3.171875 11.648438 -3.46875 12.234375 -4.0625 C 12.828125 -4.65625 13.125 -5.5 13.125 -6.59375 L 13.125 -9.1875 L 9.15625 -9.1875 L 9.15625 -12.640625 L 17.15625 -12.640625 L 17.15625 -6.59375 C 17.15625 -5.1875 16.84375 -3.960938 16.21875 -2.921875 C 15.601562 -1.890625 14.738281 -1.09375 13.625 -0.53125 C 12.519531 0.03125 11.222656 0.3125 9.734375 0.3125 Z M 9.734375 0.3125 "/></g></g></g><g fill="#006600" fill-opacity="1"><g transform="translate(225.94549, 198.749987)"><g><path d="M 2.875 0 L 2.875 -3.609375 L 7.578125 -3.609375 L 7.578125 -19.75 L 2.875 -19.75 L 2.875 -23.359375 L 16.3125 -23.359375 L 16.3125 -19.75 L 11.609375 -19.75 L 11.609375 -3.609375 L 16.3125 -3.609375 L 16.3125 0 Z M 2.875 0 "/></g></g></g><g fill="#006600" fill-opacity="1"><g transform="translate(245.172764, 198.749987)"><g><path d="M 9.859375 0.3125 C 8.335938 0.3125 7.019531 0.03125 5.90625 -0.53125 C 4.800781 -1.09375 3.945312 -1.890625 3.34375 -2.921875 C 2.738281 -3.960938 2.4375 -5.1875 2.4375 -6.59375 L 2.4375 -16.765625 C 2.4375 -18.171875 2.738281 -19.390625 3.34375 -20.421875 C 3.945312 -21.460938 4.800781 -22.265625 5.90625 -22.828125 C 7.019531 -23.398438 8.335938 -23.6875 9.859375 -23.6875 C 11.347656 -23.6875 12.644531 -23.398438 13.75 -22.828125 C 14.863281 -22.265625 15.726562 -21.460938 16.34375 -20.421875 C 16.96875 -19.390625 17.28125 -18.171875 17.28125 -16.765625 L 13.25 -16.765625 C 13.25 -17.859375 12.953125 -18.695312 12.359375 -19.28125 C 11.773438 -19.863281 10.941406 -20.15625 9.859375 -20.15625 C 8.765625 -20.15625 7.921875 -19.863281 7.328125 -19.28125 C 6.734375 -18.695312 6.4375 -17.859375 6.4375 -16.765625 L 6.4375 -6.59375 C 6.4375 -5.5 6.734375 -4.660156 7.328125 -4.078125 C 7.921875 -3.492188 8.765625 -3.203125 9.859375 -3.203125 C 10.941406 -3.203125 11.773438 -3.492188 12.359375 -4.078125 C 12.953125 -4.660156 13.25 -5.5 13.25 -6.59375 L 17.28125 -6.59375 C 17.28125 -5.1875 16.96875 -3.960938 16.34375 -2.921875 C 15.726562 -1.890625 14.863281 -1.09375 13.75 -0.53125 C 12.644531 0.03125 11.347656 0.3125 9.859375 0.3125 Z M 9.859375 0.3125 "/></g></g></g><g fill="#006600" fill-opacity="1"><g transform="translate(264.400039, 198.749987)"><g><path d="M 9.59375 0.3125 C 8.695312 0.3125 7.976562 0.0390625 7.4375 -0.5 C 6.894531 -1.039062 6.625 -1.75 6.625 -2.625 C 6.625 -3.5 6.894531 -4.210938 7.4375 -4.765625 C 7.976562 -5.316406 8.695312 -5.59375 9.59375 -5.59375 C 10.488281 -5.59375 11.207031 -5.316406 11.75 -4.765625 C 12.300781 -4.210938 12.578125 -3.5 12.578125 -2.625 C 12.578125 -1.75 12.300781 -1.039062 11.75 -0.5 C 11.207031 0.0390625 10.488281 0.3125 9.59375 0.3125 Z M 9.59375 0.3125 "/></g></g></g><g fill="#006600" fill-opacity="1"><g transform="translate(283.627314, 198.749987)"><g><path d="M 9.859375 0.3125 C 8.335938 0.3125 7.019531 0.03125 5.90625 -0.53125 C 4.800781 -1.09375 3.945312 -1.890625 3.34375 -2.921875 C 2.738281 -3.960938 2.4375 -5.1875 2.4375 -6.59375 L 2.4375 -16.765625 C 2.4375 -18.171875 2.738281 -19.390625 3.34375 -20.421875 C 3.945312 -21.460938 4.800781 -22.265625 5.90625 -22.828125 C 7.019531 -23.398438 8.335938 -23.6875 9.859375 -23.6875 C 11.347656 -23.6875 12.644531 -23.398438 13.75 -22.828125 C 14.863281 -22.265625 15.726562 -21.460938 16.34375 -20.421875 C 16.96875 -19.390625 17.28125 -18.171875 17.28125 -16.765625 L 13.25 -16.765625 C 13.25 -17.859375 12.953125 -18.695312 12.359375 -19.28125 C 11.773438 -19.863281 10.941406 -20.15625 9.859375 -20.15625 C 8.765625 -20.15625 7.921875 -19.863281 7.328125 -19.28125 C 6.734375 -18.695312 6.4375 -17.859375 6.4375 -16.765625 L 6.4375 -6.59375 C 6.4375 -5.5 6.734375 -4.660156 7.328125 -4.078125 C 7.921875 -3.492188 8.765625 -3.203125 9.859375 -3.203125 C 10.941406 -3.203125 11.773438 -3.492188 12.359375 -4.078125 C 12.953125 -4.660156 13.25 -5.5 13.25 -6.59375 L 17.28125 -6.59375 C 17.28125 -5.1875 16.96875 -3.960938 16.34375 -2.921875 C 15.726562 -1.890625 14.863281 -1.09375 13.75 -0.53125 C 12.644531 0.03125 11.347656 0.3125 9.859375 0.3125 Z M 9.859375 0.3125 "/></g></g></g><g fill="#006600" fill-opacity="1"><g transform="translate(302.854588, 198.749987)"><g><path d="M 9.59375 0.3125 C 7.351562 0.3125 5.578125 -0.320312 4.265625 -1.59375 C 2.953125 -2.875 2.296875 -4.644531 2.296875 -6.90625 L 2.296875 -16.453125 C 2.296875 -18.710938 2.953125 -20.484375 4.265625 -21.765625 C 5.578125 -23.046875 7.351562 -23.6875 9.59375 -23.6875 C 11.832031 -23.6875 13.609375 -23.046875 14.921875 -21.765625 C 16.234375 -20.484375 16.890625 -18.722656 16.890625 -16.484375 L 16.890625 -6.90625 C 16.890625 -4.644531 16.234375 -2.875 14.921875 -1.59375 C 13.609375 -0.320312 11.832031 0.3125 9.59375 0.3125 Z M 9.59375 -3.203125 C 10.6875 -3.203125 11.507812 -3.492188 12.0625 -4.078125 C 12.613281 -4.660156 12.890625 -5.5 12.890625 -6.59375 L 12.890625 -16.765625 C 12.890625 -17.859375 12.613281 -18.695312 12.0625 -19.28125 C 11.507812 -19.863281 10.6875 -20.15625 9.59375 -20.15625 C 8.507812 -20.15625 7.6875 -19.863281 7.125 -19.28125 C 6.570312 -18.695312 6.296875 -17.859375 6.296875 -16.765625 L 6.296875 -6.59375 C 6.296875 -5.5 6.570312 -4.660156 7.125 -4.078125 C 7.6875 -3.492188 8.507812 -3.203125 9.59375 -3.203125 Z M 9.59375 -3.203125 "/></g></g></g><g fill="#006600" fill-opacity="1"><g transform="translate(322.081863, 198.749987)"><g><path d="M 1.734375 0 L 1.734375 -23.359375 L 6.9375 -23.359375 L 9.5625 -13.3125 L 12.21875 -23.359375 L 17.46875 -23.359375 L 17.46875 0 L 13.734375 0 L 13.734375 -9.828125 C 13.734375 -11.171875 13.769531 -12.5625 13.84375 -14 C 13.914062 -15.4375 14.003906 -16.832031 14.109375 -18.1875 C 14.210938 -19.539062 14.332031 -20.773438 14.46875 -21.890625 L 11.171875 -10.140625 L 7.875 -10.140625 L 4.703125 -21.59375 C 4.890625 -20.125 5.0625 -18.367188 5.21875 -16.328125 C 5.382812 -14.296875 5.46875 -12.128906 5.46875 -9.828125 L 5.46875 0 Z M 1.734375 0 "/></g></g></g></svg>