<svg xmlns="http://www.w3.org/2000/svg" xmlns:xlink="http://www.w3.org/1999/xlink" width="900" zoomAndPan="magnify" viewBox="0 0 675 74.999997" height="100" preserveAspectRatio="xMidYMid meet" version="1.0"><defs><g/><clipPath id="5f96bc95ed"><rect x="0" width="675" y="0" height="75"/></clipPath></defs><g transform="matrix(1, 0, 0, 1, 0, -0.000000000000001893)"><g clip-path="url(#5f96bc95ed)"><g fill="#ffe033" fill-opacity="1"><g transform="translate(0.0000135, 62.18101)"><g><path d="M 3.796875 0 L 3.796875 -51.234375 L 15.234375 -51.234375 L 20.984375 -29.203125 L 26.8125 -51.234375 L 38.328125 -51.234375 L 38.328125 0 L 30.109375 0 L 30.109375 -21.546875 C 30.109375 -24.492188 30.191406 -27.546875 30.359375 -30.703125 C 30.523438 -33.859375 30.722656 -36.921875 30.953125 -39.890625 C 31.179688 -42.867188 31.4375 -45.578125 31.71875 -48.015625 L 24.5 -22.25 L 17.265625 -22.25 L 10.3125 -47.375 C 10.738281 -44.144531 11.125 -40.296875 11.46875 -35.828125 C 11.820312 -31.359375 12 -26.597656 12 -21.546875 L 12 0 Z M 3.796875 0 "/></g></g></g><g fill="#ffe033" fill-opacity="1"><g transform="translate(42.182114, 62.18101)"><g><path d="M 2.453125 0 L 15.375 -51.234375 L 26.671875 -51.234375 L 39.65625 0 L 30.671875 0 L 27.859375 -12.421875 L 14.25 -12.421875 L 11.4375 0 Z M 15.859375 -19.578125 L 26.25 -19.578125 L 23.15625 -33.34375 C 22.644531 -35.632812 22.203125 -37.703125 21.828125 -39.546875 C 21.453125 -41.398438 21.195312 -42.75 21.0625 -43.59375 C 20.914062 -42.75 20.65625 -41.398438 20.28125 -39.546875 C 19.90625 -37.703125 19.460938 -35.65625 18.953125 -33.40625 Z M 15.859375 -19.578125 "/></g></g></g><g fill="#ffe033" fill-opacity="1"><g transform="translate(84.364215, 62.18101)"><g><path d="M 5.40625 0 L 5.40625 -51.234375 L 21.546875 -51.234375 C 24.960938 -51.234375 27.921875 -50.601562 30.421875 -49.34375 C 32.929688 -48.082031 34.882812 -46.316406 36.28125 -44.046875 C 37.6875 -41.773438 38.390625 -39.09375 38.390625 -36 C 38.390625 -32.582031 37.546875 -29.597656 35.859375 -27.046875 C 34.179688 -24.503906 31.914062 -22.695312 29.0625 -21.625 L 39.09375 0 L 29.484375 0 L 20.5 -20.359375 L 14.109375 -20.359375 L 14.109375 0 Z M 14.109375 -28.078125 L 21.546875 -28.078125 C 24.023438 -28.078125 25.96875 -28.753906 27.375 -30.109375 C 28.78125 -31.460938 29.484375 -33.332031 29.484375 -35.71875 C 29.484375 -38.113281 28.769531 -40.007812 27.34375 -41.40625 C 25.914062 -42.8125 23.984375 -43.515625 21.546875 -43.515625 L 14.109375 -43.515625 Z M 14.109375 -28.078125 "/></g></g></g><g fill="#ffe033" fill-opacity="1"><g transform="translate(126.546316, 62.18101)"><g><path d="M 16.640625 0 L 16.640625 -43.3125 L 3.234375 -43.3125 L 3.234375 -51.234375 L 38.890625 -51.234375 L 38.890625 -43.3125 L 25.484375 -43.3125 L 25.484375 0 Z M 16.640625 0 "/></g></g></g><g fill="#ffe033" fill-opacity="1"><g transform="translate(168.728417, 62.18101)"><g><path d="M 6.3125 0 L 6.3125 -7.9375 L 16.640625 -7.9375 L 16.640625 -43.3125 L 6.3125 -43.3125 L 6.3125 -51.234375 L 35.796875 -51.234375 L 35.796875 -43.3125 L 25.484375 -43.3125 L 25.484375 -7.9375 L 35.796875 -7.9375 L 35.796875 0 Z M 6.3125 0 "/></g></g></g><g fill="#ffe033" fill-opacity="1"><g transform="translate(210.910518, 62.18101)"><g><path d="M 2.453125 0 L 15.375 -51.234375 L 26.671875 -51.234375 L 39.65625 0 L 30.671875 0 L 27.859375 -12.421875 L 14.25 -12.421875 L 11.4375 0 Z M 15.859375 -19.578125 L 26.25 -19.578125 L 23.15625 -33.34375 C 22.644531 -35.632812 22.203125 -37.703125 21.828125 -39.546875 C 21.453125 -41.398438 21.195312 -42.75 21.0625 -43.59375 C 20.914062 -42.75 20.65625 -41.398438 20.28125 -39.546875 C 19.90625 -37.703125 19.460938 -35.65625 18.953125 -33.40625 Z M 15.859375 -19.578125 "/></g></g></g><g fill="#ffe033" fill-opacity="1"><g transform="translate(253.092619, 62.18101)"><g><path d="M 8.5 0 L 8.5 -51.234375 L 17.265625 -51.234375 L 17.265625 -7.9375 L 39.03125 -7.9375 L 39.03125 0 Z M 8.5 0 "/></g></g></g><g fill="#006600" fill-opacity="1"><g transform="translate(295.298041, 62.18101)"><g><path d="M 8.5 0 L 8.5 -51.234375 L 17.265625 -51.234375 L 17.265625 -7.9375 L 39.03125 -7.9375 L 39.03125 0 Z M 8.5 0 "/></g></g></g><g fill="#006600" fill-opacity="1"><g transform="translate(337.480142, 62.18101)"><g><path d="M 21.0625 0.703125 C 16.144531 0.703125 12.242188 -0.695312 9.359375 -3.5 C 6.484375 -6.3125 5.046875 -10.195312 5.046875 -15.15625 L 5.046875 -36.078125 C 5.046875 -41.035156 6.484375 -44.914062 9.359375 -47.71875 C 12.242188 -50.53125 16.144531 -51.9375 21.0625 -51.9375 C 25.96875 -51.9375 29.859375 -50.53125 32.734375 -47.71875 C 35.617188 -44.914062 37.0625 -41.054688 37.0625 -36.140625 L 37.0625 -15.15625 C 37.0625 -10.195312 35.617188 -6.3125 32.734375 -3.5 C 29.859375 -0.695312 25.96875 0.703125 21.0625 0.703125 Z M 21.0625 -7.015625 C 23.445312 -7.015625 25.242188 -7.65625 26.453125 -8.9375 C 27.671875 -10.226562 28.28125 -12.066406 28.28125 -14.453125 L 28.28125 -36.78125 C 28.28125 -39.164062 27.671875 -41 26.453125 -42.28125 C 25.242188 -43.570312 23.445312 -44.21875 21.0625 -44.21875 C 18.675781 -44.21875 16.875 -43.570312 15.65625 -42.28125 C 14.4375 -41 13.828125 -39.164062 13.828125 -36.78125 L 13.828125 -14.453125 C 13.828125 -12.066406 14.4375 -10.226562 15.65625 -8.9375 C 16.875 -7.65625 18.675781 -7.015625 21.0625 -7.015625 Z M 21.0625 -7.015625 "/></g></g></g><g fill="#006600" fill-opacity="1"><g transform="translate(379.662243, 62.18101)"><g><path d="M 21.34375 0.703125 C 18.019531 0.703125 15.140625 0.0820312 12.703125 -1.15625 C 10.265625 -2.394531 8.378906 -4.148438 7.046875 -6.421875 C 5.710938 -8.691406 5.046875 -11.367188 5.046875 -14.453125 L 5.046875 -36.78125 C 5.046875 -39.863281 5.710938 -42.539062 7.046875 -44.8125 C 8.378906 -47.082031 10.265625 -48.835938 12.703125 -50.078125 C 15.140625 -51.316406 18.019531 -51.9375 21.34375 -51.9375 C 24.613281 -51.9375 27.460938 -51.316406 29.890625 -50.078125 C 32.328125 -48.835938 34.222656 -47.082031 35.578125 -44.8125 C 36.941406 -42.539062 37.625 -39.863281 37.625 -36.78125 L 28.78125 -36.78125 C 28.78125 -39.164062 28.132812 -41 26.84375 -42.28125 C 25.5625 -43.570312 23.726562 -44.21875 21.34375 -44.21875 C 18.945312 -44.21875 17.09375 -43.582031 15.78125 -42.3125 C 14.476562 -41.050781 13.828125 -39.226562 13.828125 -36.84375 L 13.828125 -14.453125 C 13.828125 -12.066406 14.476562 -10.21875 15.78125 -8.90625 C 17.09375 -7.601562 18.945312 -6.953125 21.34375 -6.953125 C 23.726562 -6.953125 25.5625 -7.601562 26.84375 -8.90625 C 28.132812 -10.21875 28.78125 -12.066406 28.78125 -14.453125 L 28.78125 -20.140625 L 20.078125 -20.140625 L 20.078125 -27.71875 L 37.625 -27.71875 L 37.625 -14.453125 C 37.625 -11.367188 36.941406 -8.691406 35.578125 -6.421875 C 34.222656 -4.148438 32.328125 -2.394531 29.890625 -1.15625 C 27.460938 0.0820312 24.613281 0.703125 21.34375 0.703125 Z M 21.34375 0.703125 "/></g></g></g><g fill="#006600" fill-opacity="1"><g transform="translate(421.844344, 62.18101)"><g><path d="M 6.3125 0 L 6.3125 -7.9375 L 16.640625 -7.9375 L 16.640625 -43.3125 L 6.3125 -43.3125 L 6.3125 -51.234375 L 35.796875 -51.234375 L 35.796875 -43.3125 L 25.484375 -43.3125 L 25.484375 -7.9375 L 35.796875 -7.9375 L 35.796875 0 Z M 6.3125 0 "/></g></g></g><g fill="#006600" fill-opacity="1"><g transform="translate(464.026445, 62.18101)"><g><path d="M 21.625 0.703125 C 18.300781 0.703125 15.421875 0.0820312 12.984375 -1.15625 C 10.546875 -2.394531 8.660156 -4.148438 7.328125 -6.421875 C 5.992188 -8.691406 5.328125 -11.367188 5.328125 -14.453125 L 5.328125 -36.78125 C 5.328125 -39.863281 5.992188 -42.539062 7.328125 -44.8125 C 8.660156 -47.082031 10.546875 -48.835938 12.984375 -50.078125 C 15.421875 -51.316406 18.300781 -51.9375 21.625 -51.9375 C 24.894531 -51.9375 27.742188 -51.316406 30.171875 -50.078125 C 32.609375 -48.835938 34.503906 -47.082031 35.859375 -44.8125 C 37.222656 -42.539062 37.90625 -39.863281 37.90625 -36.78125 L 29.0625 -36.78125 C 29.0625 -39.164062 28.414062 -41 27.125 -42.28125 C 25.84375 -43.570312 24.007812 -44.21875 21.625 -44.21875 C 19.226562 -44.21875 17.375 -43.570312 16.0625 -42.28125 C 14.757812 -41 14.109375 -39.164062 14.109375 -36.78125 L 14.109375 -14.453125 C 14.109375 -12.066406 14.757812 -10.226562 16.0625 -8.9375 C 17.375 -7.65625 19.226562 -7.015625 21.625 -7.015625 C 24.007812 -7.015625 25.84375 -7.65625 27.125 -8.9375 C 28.414062 -10.226562 29.0625 -12.066406 29.0625 -14.453125 L 37.90625 -14.453125 C 37.90625 -11.367188 37.222656 -8.691406 35.859375 -6.421875 C 34.503906 -4.148438 32.609375 -2.394531 30.171875 -1.15625 C 27.742188 0.0820312 24.894531 0.703125 21.625 0.703125 Z M 21.625 0.703125 "/></g></g></g><g fill="#006600" fill-opacity="1"><g transform="translate(506.208546, 62.18101)"><g><path d="M 21.0625 0.703125 C 19.09375 0.703125 17.507812 0.109375 16.3125 -1.078125 C 15.125 -2.273438 14.53125 -3.832031 14.53125 -5.75 C 14.53125 -7.675781 15.125 -9.242188 16.3125 -10.453125 C 17.507812 -11.671875 19.09375 -12.28125 21.0625 -12.28125 C 23.019531 -12.28125 24.59375 -11.671875 25.78125 -10.453125 C 26.976562 -9.242188 27.578125 -7.675781 27.578125 -5.75 C 27.578125 -3.832031 26.976562 -2.273438 25.78125 -1.078125 C 24.59375 0.109375 23.019531 0.703125 21.0625 0.703125 Z M 21.0625 0.703125 "/></g></g></g><g fill="#006600" fill-opacity="1"><g transform="translate(548.390647, 62.18101)"><g><path d="M 21.625 0.703125 C 18.300781 0.703125 15.421875 0.0820312 12.984375 -1.15625 C 10.546875 -2.394531 8.660156 -4.148438 7.328125 -6.421875 C 5.992188 -8.691406 5.328125 -11.367188 5.328125 -14.453125 L 5.328125 -36.78125 C 5.328125 -39.863281 5.992188 -42.539062 7.328125 -44.8125 C 8.660156 -47.082031 10.546875 -48.835938 12.984375 -50.078125 C 15.421875 -51.316406 18.300781 -51.9375 21.625 -51.9375 C 24.894531 -51.9375 27.742188 -51.316406 30.171875 -50.078125 C 32.609375 -48.835938 34.503906 -47.082031 35.859375 -44.8125 C 37.222656 -42.539062 37.90625 -39.863281 37.90625 -36.78125 L 29.0625 -36.78125 C 29.0625 -39.164062 28.414062 -41 27.125 -42.28125 C 25.84375 -43.570312 24.007812 -44.21875 21.625 -44.21875 C 19.226562 -44.21875 17.375 -43.570312 16.0625 -42.28125 C 14.757812 -41 14.109375 -39.164062 14.109375 -36.78125 L 14.109375 -14.453125 C 14.109375 -12.066406 14.757812 -10.226562 16.0625 -8.9375 C 17.375 -7.65625 19.226562 -7.015625 21.625 -7.015625 C 24.007812 -7.015625 25.84375 -7.65625 27.125 -8.9375 C 28.414062 -10.226562 29.0625 -12.066406 29.0625 -14.453125 L 37.90625 -14.453125 C 37.90625 -11.367188 37.222656 -8.691406 35.859375 -6.421875 C 34.503906 -4.148438 32.609375 -2.394531 30.171875 -1.15625 C 27.742188 0.0820312 24.894531 0.703125 21.625 0.703125 Z M 21.625 0.703125 "/></g></g></g><g fill="#006600" fill-opacity="1"><g transform="translate(590.572748, 62.18101)"><g><path d="M 21.0625 0.703125 C 16.144531 0.703125 12.242188 -0.695312 9.359375 -3.5 C 6.484375 -6.3125 5.046875 -10.195312 5.046875 -15.15625 L 5.046875 -36.078125 C 5.046875 -41.035156 6.484375 -44.914062 9.359375 -47.71875 C 12.242188 -50.53125 16.144531 -51.9375 21.0625 -51.9375 C 25.96875 -51.9375 29.859375 -50.53125 32.734375 -47.71875 C 35.617188 -44.914062 37.0625 -41.054688 37.0625 -36.140625 L 37.0625 -15.15625 C 37.0625 -10.195312 35.617188 -6.3125 32.734375 -3.5 C 29.859375 -0.695312 25.96875 0.703125 21.0625 0.703125 Z M 21.0625 -7.015625 C 23.445312 -7.015625 25.242188 -7.65625 26.453125 -8.9375 C 27.671875 -10.226562 28.28125 -12.066406 28.28125 -14.453125 L 28.28125 -36.78125 C 28.28125 -39.164062 27.671875 -41 26.453125 -42.28125 C 25.242188 -43.570312 23.445312 -44.21875 21.0625 -44.21875 C 18.675781 -44.21875 16.875 -43.570312 15.65625 -42.28125 C 14.4375 -41 13.828125 -39.164062 13.828125 -36.78125 L 13.828125 -14.453125 C 13.828125 -12.066406 14.4375 -10.226562 15.65625 -8.9375 C 16.875 -7.65625 18.675781 -7.015625 21.0625 -7.015625 Z M 21.0625 -7.015625 "/></g></g></g><g fill="#006600" fill-opacity="1"><g transform="translate(632.754848, 62.18101)"><g><path d="M 3.796875 0 L 3.796875 -51.234375 L 15.234375 -51.234375 L 20.984375 -29.203125 L 26.8125 -51.234375 L 38.328125 -51.234375 L 38.328125 0 L 30.109375 0 L 30.109375 -21.546875 C 30.109375 -24.492188 30.191406 -27.546875 30.359375 -30.703125 C 30.523438 -33.859375 30.722656 -36.921875 30.953125 -39.890625 C 31.179688 -42.867188 31.4375 -45.578125 31.71875 -48.015625 L 24.5 -22.25 L 17.265625 -22.25 L 10.3125 -47.375 C 10.738281 -44.144531 11.125 -40.296875 11.46875 -35.828125 C 11.820312 -31.359375 12 -26.597656 12 -21.546875 L 12 0 Z M 3.796875 0 "/></g></g></g></g></g></svg>