<svg xmlns="http://www.w3.org/2000/svg" xmlns:xlink="http://www.w3.org/1999/xlink" width="500" zoomAndPan="magnify" viewBox="0 0 375 74.999997" height="100" preserveAspectRatio="xMidYMid meet" version="1.0"><defs><g/><clipPath id="4f4b8ebd9c"><rect x="0" width="375" y="0" height="53"/></clipPath></defs><g transform="matrix(1, 0, 0, 1, 0, 11)"><g clip-path="url(#4f4b8ebd9c)"><g fill="#ffe033" fill-opacity="1"><g transform="translate(0.525007, 40.173274)"><g><path d="M 2.09375 0 L 2.09375 -28.390625 L 8.4375 -28.390625 L 11.625 -16.171875 L 14.859375 -28.390625 L 21.234375 -28.390625 L 21.234375 0 L 16.6875 0 L 16.6875 -11.9375 C 16.6875 -13.570312 16.726562 -15.265625 16.8125 -17.015625 C 16.90625 -18.765625 17.015625 -20.460938 17.140625 -22.109375 C 17.273438 -23.753906 17.421875 -25.25 17.578125 -26.59375 L 13.578125 -12.328125 L 9.5625 -12.328125 L 5.71875 -26.25 C 5.945312 -24.457031 6.160156 -22.320312 6.359375 -19.84375 C 6.554688 -17.375 6.65625 -14.738281 6.65625 -11.9375 L 6.65625 0 Z M 2.09375 0 "/></g></g></g><g fill="#ffe033" fill-opacity="1"><g transform="translate(23.89389, 40.173274)"><g><path d="M 1.359375 0 L 8.515625 -28.390625 L 14.78125 -28.390625 L 21.96875 0 L 17 0 L 15.4375 -6.890625 L 7.890625 -6.890625 L 6.34375 0 Z M 8.796875 -10.84375 L 14.546875 -10.84375 L 12.828125 -18.46875 C 12.546875 -19.738281 12.300781 -20.882812 12.09375 -21.90625 C 11.882812 -22.9375 11.742188 -23.6875 11.671875 -24.15625 C 11.585938 -23.6875 11.441406 -22.9375 11.234375 -21.90625 C 11.023438 -20.882812 10.78125 -19.753906 10.5 -18.515625 Z M 8.796875 -10.84375 "/></g></g></g><g fill="#ffe033" fill-opacity="1"><g transform="translate(47.262772, 40.173274)"><g><path d="M 3 0 L 3 -28.390625 L 11.9375 -28.390625 C 13.832031 -28.390625 15.472656 -28.039062 16.859375 -27.34375 C 18.242188 -26.644531 19.320312 -25.664062 20.09375 -24.40625 C 20.875 -23.144531 21.265625 -21.660156 21.265625 -19.953125 C 21.265625 -18.054688 20.796875 -16.398438 19.859375 -14.984375 C 18.929688 -13.578125 17.675781 -12.578125 16.09375 -11.984375 L 21.65625 0 L 16.328125 0 L 11.359375 -11.28125 L 7.8125 -11.28125 L 7.8125 0 Z M 7.8125 -15.5625 L 11.9375 -15.5625 C 13.3125 -15.5625 14.382812 -15.9375 15.15625 -16.6875 C 15.9375 -17.4375 16.328125 -18.472656 16.328125 -19.796875 C 16.328125 -21.117188 15.929688 -22.164062 15.140625 -22.9375 C 14.359375 -23.71875 13.289062 -24.109375 11.9375 -24.109375 L 7.8125 -24.109375 Z M 7.8125 -15.5625 "/></g></g></g><g fill="#ffe033" fill-opacity="1"><g transform="translate(70.631654, 40.173274)"><g><path d="M 9.21875 0 L 9.21875 -24 L 1.78125 -24 L 1.78125 -28.390625 L 21.546875 -28.390625 L 21.546875 -24 L 14.125 -24 L 14.125 0 Z M 9.21875 0 "/></g></g></g><g fill="#ffe033" fill-opacity="1"><g transform="translate(94.000536, 40.173274)"><g><path d="M 3.5 0 L 3.5 -4.390625 L 9.21875 -4.390625 L 9.21875 -24 L 3.5 -24 L 3.5 -28.390625 L 19.828125 -28.390625 L 19.828125 -24 L 14.125 -24 L 14.125 -4.390625 L 19.828125 -4.390625 L 19.828125 0 Z M 3.5 0 "/></g></g></g><g fill="#ffe033" fill-opacity="1"><g transform="translate(117.369419, 40.173274)"><g><path d="M 1.359375 0 L 8.515625 -28.390625 L 14.78125 -28.390625 L 21.96875 0 L 17 0 L 15.4375 -6.890625 L 7.890625 -6.890625 L 6.34375 0 Z M 8.796875 -10.84375 L 14.546875 -10.84375 L 12.828125 -18.46875 C 12.546875 -19.738281 12.300781 -20.882812 12.09375 -21.90625 C 11.882812 -22.9375 11.742188 -23.6875 11.671875 -24.15625 C 11.585938 -23.6875 11.441406 -22.9375 11.234375 -21.90625 C 11.023438 -20.882812 10.78125 -19.753906 10.5 -18.515625 Z M 8.796875 -10.84375 "/></g></g></g><g fill="#ffe033" fill-opacity="1"><g transform="translate(140.738301, 40.173274)"><g><path d="M 4.703125 0 L 4.703125 -28.390625 L 9.5625 -28.390625 L 9.5625 -4.390625 L 21.625 -4.390625 L 21.625 0 Z M 4.703125 0 "/></g></g></g><g fill="#006600" fill-opacity="1"><g transform="translate(164.120104, 40.173274)"><g><path d="M 4.703125 0 L 4.703125 -28.390625 L 9.5625 -28.390625 L 9.5625 -4.390625 L 21.625 -4.390625 L 21.625 0 Z M 4.703125 0 "/></g></g></g><g fill="#006600" fill-opacity="1"><g transform="translate(187.488986, 40.173274)"><g><path d="M 11.671875 0.390625 C 8.941406 0.390625 6.78125 -0.382812 5.1875 -1.9375 C 3.59375 -3.5 2.796875 -5.65625 2.796875 -8.40625 L 2.796875 -19.984375 C 2.796875 -22.734375 3.59375 -24.882812 5.1875 -26.4375 C 6.78125 -28 8.941406 -28.78125 11.671875 -28.78125 C 14.390625 -28.78125 16.546875 -28 18.140625 -26.4375 C 19.734375 -24.882812 20.53125 -22.75 20.53125 -20.03125 L 20.53125 -8.40625 C 20.53125 -5.65625 19.734375 -3.5 18.140625 -1.9375 C 16.546875 -0.382812 14.390625 0.390625 11.671875 0.390625 Z M 11.671875 -3.890625 C 12.992188 -3.890625 13.988281 -4.242188 14.65625 -4.953125 C 15.332031 -5.671875 15.671875 -6.691406 15.671875 -8.015625 L 15.671875 -20.375 C 15.671875 -21.695312 15.332031 -22.710938 14.65625 -23.421875 C 13.988281 -24.140625 12.992188 -24.5 11.671875 -24.5 C 10.347656 -24.5 9.347656 -24.140625 8.671875 -23.421875 C 7.992188 -22.710938 7.65625 -21.695312 7.65625 -20.375 L 7.65625 -8.015625 C 7.65625 -6.691406 7.992188 -5.671875 8.671875 -4.953125 C 9.347656 -4.242188 10.347656 -3.890625 11.671875 -3.890625 Z M 11.671875 -3.890625 "/></g></g></g><g fill="#006600" fill-opacity="1"><g transform="translate(210.857868, 40.173274)"><g><path d="M 11.828125 0.390625 C 9.984375 0.390625 8.382812 0.046875 7.03125 -0.640625 C 5.6875 -1.328125 4.644531 -2.296875 3.90625 -3.546875 C 3.164062 -4.804688 2.796875 -6.296875 2.796875 -8.015625 L 2.796875 -20.375 C 2.796875 -22.09375 3.164062 -23.578125 3.90625 -24.828125 C 4.644531 -26.085938 5.6875 -27.0625 7.03125 -27.75 C 8.382812 -28.4375 9.984375 -28.78125 11.828125 -28.78125 C 13.640625 -28.78125 15.21875 -28.4375 16.5625 -27.75 C 17.914062 -27.0625 18.96875 -26.085938 19.71875 -24.828125 C 20.46875 -23.578125 20.84375 -22.09375 20.84375 -20.375 L 15.9375 -20.375 C 15.9375 -21.695312 15.582031 -22.710938 14.875 -23.421875 C 14.164062 -24.140625 13.148438 -24.5 11.828125 -24.5 C 10.503906 -24.5 9.476562 -24.148438 8.75 -23.453125 C 8.019531 -22.753906 7.65625 -21.742188 7.65625 -20.421875 L 7.65625 -8.015625 C 7.65625 -6.691406 8.019531 -5.664062 8.75 -4.9375 C 9.476562 -4.207031 10.503906 -3.84375 11.828125 -3.84375 C 13.148438 -3.84375 14.164062 -4.207031 14.875 -4.9375 C 15.582031 -5.664062 15.9375 -6.691406 15.9375 -8.015625 L 15.9375 -11.15625 L 11.125 -11.15625 L 11.125 -15.359375 L 20.84375 -15.359375 L 20.84375 -8.015625 C 20.84375 -6.296875 20.46875 -4.804688 19.71875 -3.546875 C 18.96875 -2.296875 17.914062 -1.328125 16.5625 -0.640625 C 15.21875 0.046875 13.640625 0.390625 11.828125 0.390625 Z M 11.828125 0.390625 "/></g></g></g><g fill="#006600" fill-opacity="1"><g transform="translate(234.22675, 40.173274)"><g><path d="M 3.5 0 L 3.5 -4.390625 L 9.21875 -4.390625 L 9.21875 -24 L 3.5 -24 L 3.5 -28.390625 L 19.828125 -28.390625 L 19.828125 -24 L 14.125 -24 L 14.125 -4.390625 L 19.828125 -4.390625 L 19.828125 0 Z M 3.5 0 "/></g></g></g><g fill="#006600" fill-opacity="1"><g transform="translate(257.595633, 40.173274)"><g><path d="M 11.984375 0.390625 C 10.140625 0.390625 8.539062 0.046875 7.1875 -0.640625 C 5.84375 -1.328125 4.800781 -2.296875 4.0625 -3.546875 C 3.320312 -4.804688 2.953125 -6.296875 2.953125 -8.015625 L 2.953125 -20.375 C 2.953125 -22.09375 3.320312 -23.578125 4.0625 -24.828125 C 4.800781 -26.085938 5.84375 -27.0625 7.1875 -27.75 C 8.539062 -28.4375 10.140625 -28.78125 11.984375 -28.78125 C 13.796875 -28.78125 15.375 -28.4375 16.71875 -27.75 C 18.070312 -27.0625 19.125 -26.085938 19.875 -24.828125 C 20.625 -23.578125 21 -22.09375 21 -20.375 L 16.09375 -20.375 C 16.09375 -21.695312 15.738281 -22.710938 15.03125 -23.421875 C 14.320312 -24.140625 13.304688 -24.5 11.984375 -24.5 C 10.660156 -24.5 9.632812 -24.140625 8.90625 -23.421875 C 8.175781 -22.710938 7.8125 -21.695312 7.8125 -20.375 L 7.8125 -8.015625 C 7.8125 -6.691406 8.175781 -5.671875 8.90625 -4.953125 C 9.632812 -4.242188 10.660156 -3.890625 11.984375 -3.890625 C 13.304688 -3.890625 14.320312 -4.242188 15.03125 -4.953125 C 15.738281 -5.671875 16.09375 -6.691406 16.09375 -8.015625 L 21 -8.015625 C 21 -6.296875 20.625 -4.804688 19.875 -3.546875 C 19.125 -2.296875 18.070312 -1.328125 16.71875 -0.640625 C 15.375 0.046875 13.796875 0.390625 11.984375 0.390625 Z M 11.984375 0.390625 "/></g></g></g><g fill="#006600" fill-opacity="1"><g transform="translate(280.964515, 40.173274)"><g><path d="M 11.671875 0.390625 C 10.578125 0.390625 9.695312 0.0625 9.03125 -0.59375 C 8.375 -1.257812 8.046875 -2.125 8.046875 -3.1875 C 8.046875 -4.25 8.375 -5.117188 9.03125 -5.796875 C 9.695312 -6.472656 10.578125 -6.8125 11.671875 -6.8125 C 12.753906 -6.8125 13.625 -6.472656 14.28125 -5.796875 C 14.945312 -5.117188 15.28125 -4.25 15.28125 -3.1875 C 15.28125 -2.125 14.945312 -1.257812 14.28125 -0.59375 C 13.625 0.0625 12.753906 0.390625 11.671875 0.390625 Z M 11.671875 0.390625 "/></g></g></g><g fill="#006600" fill-opacity="1"><g transform="translate(304.333397, 40.173274)"><g><path d="M 11.984375 0.390625 C 10.140625 0.390625 8.539062 0.046875 7.1875 -0.640625 C 5.84375 -1.328125 4.800781 -2.296875 4.0625 -3.546875 C 3.320312 -4.804688 2.953125 -6.296875 2.953125 -8.015625 L 2.953125 -20.375 C 2.953125 -22.09375 3.320312 -23.578125 4.0625 -24.828125 C 4.800781 -26.085938 5.84375 -27.0625 7.1875 -27.75 C 8.539062 -28.4375 10.140625 -28.78125 11.984375 -28.78125 C 13.796875 -28.78125 15.375 -28.4375 16.71875 -27.75 C 18.070312 -27.0625 19.125 -26.085938 19.875 -24.828125 C 20.625 -23.578125 21 -22.09375 21 -20.375 L 16.09375 -20.375 C 16.09375 -21.695312 15.738281 -22.710938 15.03125 -23.421875 C 14.320312 -24.140625 13.304688 -24.5 11.984375 -24.5 C 10.660156 -24.5 9.632812 -24.140625 8.90625 -23.421875 C 8.175781 -22.710938 7.8125 -21.695312 7.8125 -20.375 L 7.8125 -8.015625 C 7.8125 -6.691406 8.175781 -5.671875 8.90625 -4.953125 C 9.632812 -4.242188 10.660156 -3.890625 11.984375 -3.890625 C 13.304688 -3.890625 14.320312 -4.242188 15.03125 -4.953125 C 15.738281 -5.671875 16.09375 -6.691406 16.09375 -8.015625 L 21 -8.015625 C 21 -6.296875 20.625 -4.804688 19.875 -3.546875 C 19.125 -2.296875 18.070312 -1.328125 16.71875 -0.640625 C 15.375 0.046875 13.796875 0.390625 11.984375 0.390625 Z M 11.984375 0.390625 "/></g></g></g><g fill="#006600" fill-opacity="1"><g transform="translate(327.702279, 40.173274)"><g><path d="M 11.671875 0.390625 C 8.941406 0.390625 6.78125 -0.382812 5.1875 -1.9375 C 3.59375 -3.5 2.796875 -5.65625 2.796875 -8.40625 L 2.796875 -19.984375 C 2.796875 -22.734375 3.59375 -24.882812 5.1875 -26.4375 C 6.78125 -28 8.941406 -28.78125 11.671875 -28.78125 C 14.390625 -28.78125 16.546875 -28 18.140625 -26.4375 C 19.734375 -24.882812 20.53125 -22.75 20.53125 -20.03125 L 20.53125 -8.40625 C 20.53125 -5.65625 19.734375 -3.5 18.140625 -1.9375 C 16.546875 -0.382812 14.390625 0.390625 11.671875 0.390625 Z M 11.671875 -3.890625 C 12.992188 -3.890625 13.988281 -4.242188 14.65625 -4.953125 C 15.332031 -5.671875 15.671875 -6.691406 15.671875 -8.015625 L 15.671875 -20.375 C 15.671875 -21.695312 15.332031 -22.710938 14.65625 -23.421875 C 13.988281 -24.140625 12.992188 -24.5 11.671875 -24.5 C 10.347656 -24.5 9.347656 -24.140625 8.671875 -23.421875 C 7.992188 -22.710938 7.65625 -21.695312 7.65625 -20.375 L 7.65625 -8.015625 C 7.65625 -6.691406 7.992188 -5.671875 8.671875 -4.953125 C 9.347656 -4.242188 10.347656 -3.890625 11.671875 -3.890625 Z M 11.671875 -3.890625 "/></g></g></g><g fill="#006600" fill-opacity="1"><g transform="translate(351.071162, 40.173274)"><g><path d="M 2.09375 0 L 2.09375 -28.390625 L 8.4375 -28.390625 L 11.625 -16.171875 L 14.859375 -28.390625 L 21.234375 -28.390625 L 21.234375 0 L 16.6875 0 L 16.6875 -11.9375 C 16.6875 -13.570312 16.726562 -15.265625 16.8125 -17.015625 C 16.90625 -18.765625 17.015625 -20.460938 17.140625 -22.109375 C 17.273438 -23.753906 17.421875 -25.25 17.578125 -26.59375 L 13.578125 -12.328125 L 9.5625 -12.328125 L 5.71875 -26.25 C 5.945312 -24.457031 6.160156 -22.320312 6.359375 -19.84375 C 6.554688 -17.375 6.65625 -14.738281 6.65625 -11.9375 L 6.65625 0 Z M 2.09375 0 "/></g></g></g></g></g></svg>