<svg xmlns="http://www.w3.org/2000/svg" viewBox="0 0 375 375"><path fill="#ffe033" d="M35.396 198.75v-23.36H40.6l2.625 10.047 2.656-10.046h5.25v23.359h-3.735v-9.828q0-2.016.11-4.172.106-2.156.265-4.188.154-2.026.36-3.703l-3.297 11.75h-3.297l-3.172-11.453c.188 1.469.36 3.227.516 5.266q.248 3.048.25 6.5v9.828ZM54.014 198.75l5.891-23.36h5.14l5.923 23.36h-4.094l-1.281-5.656h-6.204l-1.28 5.656Zm6.11-8.922h4.734l-1.406-6.281a79 79 0 0 1-.61-2.828q-.252-1.265-.359-1.844-.094.58-.36 1.844-.252 1.266-.593 2.797ZM74.585 198.75v-23.36h7.36q2.325.001 4.031.876 1.717.86 2.672 2.406.968 1.547.969 3.656-.001 2.346-1.157 4.094a6.25 6.25 0 0 1-3.093 2.469l4.578 9.859h-4.39l-4.095-9.281h-2.906v9.281Zm3.97-12.797h3.39q1.687.002 2.64-.922c.645-.625.97-1.476.97-2.562q0-1.64-.985-2.594-.974-.968-2.625-.969h-3.39ZM98.922 198.75V179h-6.11v-3.61h16.266V179h-6.125v19.75ZM113.446 198.75v-3.61h4.703V179h-4.703v-3.61h13.438V179h-4.703v16.14h4.703v3.61ZM130.923 198.75l5.891-23.36h5.14l5.923 23.36h-4.094l-1.281-5.656h-6.204l-1.28 5.656Zm6.11-8.922h4.734l-1.406-6.281a79 79 0 0 1-.61-2.828q-.252-1.265-.359-1.844-.094.58-.36 1.844-.252 1.266-.593 2.797ZM152.9 198.75v-23.36h4v19.75h9.923v3.61Zm0 0"/><path fill="#060" d="M172.139 198.75v-23.36h4v19.75h9.922v3.61ZM197.085 199.062c-2.242 0-4.016-.632-5.328-1.906q-1.97-1.92-1.97-5.312v-9.547q0-3.389 1.97-5.313 1.966-1.921 5.328-1.922 3.358 0 5.328 1.922 1.969 1.923 1.969 5.282v9.578q0 3.391-1.97 5.312c-1.312 1.274-3.089 1.906-5.327 1.906m0-3.515q1.638.001 2.468-.875.828-.874.829-2.516v-10.172q-.001-1.639-.829-2.515-.83-.874-2.468-.875-1.627.001-2.47.875c-.554.586-.827 1.422-.827 2.515v10.172c0 1.094.273 1.934.828 2.516.562.586 1.383.875 2.469.875M216.453 199.062q-2.284 0-3.954-.843-1.657-.845-2.578-2.39c-.605-1.04-.906-2.267-.906-3.673v-10.172q-.002-2.11.906-3.656a6.2 6.2 0 0 1 2.578-2.406c1.114-.57 2.43-.86 3.954-.86 1.488 0 2.785.29 3.89.86a6.2 6.2 0 0 1 2.594 2.406q.937 1.547.937 3.656h-4.03q0-1.639-.891-2.515-.878-.874-2.5-.875c-1.094 0-1.946.289-2.547.86q-.89.858-.89 2.5v10.202q0 1.641.89 2.531c.601.594 1.453.891 2.547.891q1.622 0 2.5-.89.89-.891.89-2.532v-2.594h-3.969v-3.453h8v6.047c0 1.406-.312 2.633-.937 3.672q-.924 1.547-2.594 2.39-1.658.844-3.89.844M228.82 198.75v-3.61h4.704V179h-4.704v-3.61h13.438V179h-4.703v16.14h4.703v3.61ZM255.032 199.062q-2.284 0-3.953-.843-1.658-.845-2.562-2.39c-.606-1.04-.907-2.267-.907-3.673v-10.172q-.001-2.11.907-3.656c.601-1.039 1.457-1.844 2.562-2.406 1.113-.57 2.43-.86 3.953-.86 1.488 0 2.785.29 3.89.86a6.2 6.2 0 0 1 2.595 2.406q.937 1.547.937 3.656h-4.031q0-1.639-.89-2.515-.88-.874-2.5-.875-1.642.001-2.532.875-.89.877-.89 2.515v10.172q0 1.642.89 2.516c.594.586 1.437.875 2.531.875q1.622.001 2.5-.875.89-.874.89-2.516h4.032c0 1.406-.312 2.633-.937 3.672q-.926 1.547-2.594 2.39-1.66.844-3.89.844M273.994 199.062q-1.348-.002-2.156-.812-.814-.811-.813-2.125 0-1.31.813-2.14.808-.828 2.156-.829 1.341.001 2.156.828c.55.555.828 1.266.828 2.141s-.277 1.586-.828 2.125q-.815.81-2.156.812M293.487 199.062q-2.285 0-3.953-.843-1.66-.845-2.563-2.39c-.605-1.04-.906-2.267-.906-3.673v-10.172q-.002-2.11.906-3.656c.602-1.039 1.457-1.844 2.563-2.406 1.113-.57 2.43-.86 3.953-.86 1.488 0 2.785.29 3.89.86a6.2 6.2 0 0 1 2.594 2.406q.938 1.547.938 3.656h-4.032q0-1.639-.89-2.515-.878-.874-2.5-.875-1.641.001-2.532.875-.89.877-.89 2.515v10.172q0 1.642.89 2.516c.594.586 1.438.875 2.532.875q1.622.001 2.5-.875.89-.874.89-2.516h4.032c0 1.406-.313 2.633-.938 3.672q-.924 1.547-2.594 2.39-1.658.844-3.89.844M312.448 199.062c-2.242 0-4.015-.632-5.328-1.906q-1.969-1.92-1.969-5.312v-9.547q0-3.389 1.97-5.313c1.312-1.28 3.085-1.922 5.327-1.922q3.36 0 5.328 1.922 1.97 1.923 1.97 5.282v9.578q0 3.391-1.97 5.312c-1.312 1.274-3.09 1.906-5.328 1.906m0-3.515c1.094 0 1.914-.29 2.47-.875q.826-.874.827-2.516v-10.172q0-1.639-.828-2.515c-.555-.582-1.375-.875-2.469-.875q-1.627.001-2.468.875-.83.877-.829 2.515v10.172q-.002 1.642.829 2.516c.562.586 1.382.875 2.468.875M323.816 198.75v-23.36h5.203l2.625 10.047 2.657-10.046h5.25v23.359h-3.735v-9.828q-.001-2.016.11-4.172.106-2.156.265-4.188.154-2.026.36-3.703l-3.297 11.75h-3.297l-3.172-11.453c.187 1.469.36 3.227.516 5.266.164 2.031.25 4.2.25 6.5v9.828Zm0 0"/></svg>